# Blender 4.4.1
# www.blender.org
o Cube
v 555.000000 555.000000 -555.000000
v 555.000000 0.000000 -555.000000
v 555.000000 555.000000 0.000000
v 555.000000 0.000000 0.000000
v 0.000000 555.000000 -555.000000
v 0.000000 0.000000 -555.000000
v 0.000000 555.000000 0.000000
v 0.000000 0.000000 0.000000
vn -0.0000 -1.0000 -0.0000
vn 1.0000 -0.0000 -0.0000
vn -0.0000 1.0000 -0.0000
vn -1.0000 -0.0000 -0.0000
vn -0.0000 -0.0000 1.0000
s 0
f 5//1 1//1 3//1
f 7//2 8//2 6//2
f 2//3 6//3 8//3
f 1//4 2//4 4//4
f 5//5 6//5 2//5
f 5//1 3//1 7//1
f 7//2 6//2 5//2
f 2//3 8//3 4//3
f 1//4 4//4 3//4
f 5//5 2//5 1//5
