# Blender 4.4.1
# www.blender.org
o large_box
v 130.451355 0.000000 -247.760925
v 130.451355 330.000000 -247.760986
v 81.564972 329.999969 -405.352631
v 81.564980 -0.000031 -405.352570
v 288.042999 0.000000 -296.647308
v 288.042999 330.000000 -296.647369
v 239.156616 329.999969 -454.239014
v 239.156616 -0.000031 -454.238953
vn 0.2963 -0.0000 0.9551
vn -0.0000 1.0000 -0.0000
vn -0.2963 -0.0000 -0.9551
vn -0.0000 -1.0000 -0.0000
vn -0.9551 -0.0000 0.2963
vn 0.9551 -0.0000 -0.2963
s 0
f 6//1 1//1 5//1
f 7//2 2//2 6//2
f 8//3 3//3 7//3
f 5//4 4//4 8//4
f 2//5 4//5 1//5
f 7//6 5//6 8//6
f 6//1 2//1 1//1
f 7//2 3//2 2//2
f 8//3 4//3 3//3
f 5//4 1//4 4//4
f 2//5 3//5 4//5
f 7//6 6//6 5//6
