# Blender 4.4.1
# www.blender.org
o small_box
v 423.267639 -0.000023 -66.353577
v 423.267639 165.000000 -66.353561
v 265.157562 165.000000 -113.536331
v 265.157562 -0.000023 -113.536346
v 470.450409 -0.000008 -224.463638
v 470.450409 165.000000 -224.463623
v 312.340332 165.000000 -271.646393
v 312.340332 -0.000008 -271.646423
vn 0.9582 -0.0000 0.2860
vn -0.0000 1.0000 -0.0000
vn -0.9582 -0.0000 -0.2860
vn -0.0000 -1.0000 -0.0000
vn -0.2860 -0.0000 0.9582
vn 0.2860 -0.0000 -0.9582
s 0
f 6//1 1//1 5//1
f 7//2 2//2 6//2
f 8//3 3//3 7//3
f 5//4 4//4 8//4
f 2//5 4//5 1//5
f 7//6 5//6 8//6
f 6//1 2//1 1//1
f 7//2 3//2 2//2
f 8//3 4//3 3//3
f 5//4 1//4 4//4
f 2//5 3//5 4//5
f 7//6 6//6 5//6
